<svg aria-hidden="true" style="position: absolute; width: 0; height: 0; overflow: hidden;" version="1.1" xmlns="http://www.w3.org/2000/svg" xmlns:xlink="http://www.w3.org/1999/xlink">
<defs>
<symbol id="attention" viewBox="0 0 32 32">
<path fill="#fe4b64" style="fill: var(--color1, #fe4b64)" d="M32 16c0 8.837-7.163 16-16 16s-16-7.163-16-16c0-8.837 7.163-16 16-16s16 7.163 16 16z"></path>
<path fill="#fff" style="fill: var(--color2, #fff)" d="M14.421 10.453h3.174l-0.529 7.799h-2.116l-0.529-7.799zM16.008 22.537c-0.466 0-0.859-0.148-1.178-0.444-0.307-0.307-0.461-0.677-0.461-1.109s0.154-0.791 0.461-1.075c0.307-0.296 0.7-0.444 1.178-0.444s0.87 0.148 1.178 0.444c0.307 0.284 0.461 0.643 0.461 1.075s-0.159 0.802-0.478 1.109c-0.307 0.296-0.694 0.444-1.161 0.444z"></path>
</symbol>
<symbol id="close" viewBox="0 0 32 32">
<path fill="none" stroke="#fff" style="stroke: var(--color1, #fff)" stroke-linejoin="miter" stroke-linecap="butt" stroke-miterlimit="4" stroke-width="2" d="M2 2l28 28"></path>
<path fill="none" stroke="#fff" style="stroke: var(--color1, #fff)" stroke-linejoin="miter" stroke-linecap="butt" stroke-miterlimit="4" stroke-width="2" d="M2 30l28-28"></path>
</symbol>
<symbol id="facebook" viewBox="0 0 128 32">
<path fill="#3b5998" style="fill: var(--color3, #3b5998)" d="M124.465 25.143c0.853 0 1.504 0.691 1.504 1.544 0 0 0 0 0 0 0 0.853-0.691 1.544-1.544 1.544s-1.544-0.691-1.544-1.544c0-0.853 0.691-1.544 1.585-1.544v0zM124.424 25.387c-0.691 0-1.219 0.569-1.219 1.3s0.569 1.3 1.26 1.3 1.219-0.569 1.219-1.3c0-0.691-0.528-1.3-1.26-1.3v0zM124.14 27.622h-0.284v-1.747c0.163-0.041 0.325-0.041 0.488-0.041 0.244 0 0.447 0.041 0.528 0.122 0.122 0.081 0.163 0.203 0.163 0.366 0 0.244-0.163 0.366-0.325 0.406v0c0.163 0.041 0.244 0.163 0.284 0.406s0.081 0.366 0.122 0.406h-0.284c-0.041-0.041-0.081-0.203-0.122-0.447s-0.163-0.284-0.366-0.284h-0.203v0.813zM124.14 26.646h0.203c0.244 0 0.406-0.081 0.406-0.284s-0.122-0.284-0.406-0.284h-0.203v0.569z"></path>
<path fill="#3b5998" style="fill: var(--color3, #3b5998)" d="M65.829 15.634c-1.016 0-1.747 0.325-2.519 0.691v7.721c0.61 0.041 1.219 0.081 1.788 0.081 2.479 0 2.804-1.138 2.804-2.682v-3.698c0.041-1.178-0.366-2.113-2.072-2.113zM49.534 15.228c-1.707 0-2.072 0.935-2.072 2.072v0.65h4.145v-0.65c0-1.138-0.366-2.072-2.072-2.072v0zM17.92 23.274c0 0.935 0.447 1.382 1.382 1.382s1.625-0.325 2.397-0.691v-1.829h-2.235c-1.056 0.041-1.544 0.203-1.544 1.138zM81.717 15.634c-1.707 0-2.316 0.935-2.316 2.072v4.226c0 1.178 0.61 2.113 2.316 2.113s2.316-0.935 2.316-2.113v-4.185c-0.041-1.178-0.61-2.113-2.316-2.113v0zM9.549 28.028h-4.998v-12.15h-2.519v-4.185h2.519v-2.519c0-3.413 1.422-5.445 5.445-5.445h3.332v4.185h-2.072c-1.585 0-1.666 0.569-1.666 1.666v2.072h3.779l-0.447 4.185h-3.373v12.19zM26.697 28.069h-4.185l-0.163-1.056c-1.463 0.813-3.088 1.219-4.754 1.219-3.048 0-4.714-2.072-4.714-4.876 0-3.332 1.91-4.551 5.323-4.551h3.454v-0.731c0-1.707-0.203-2.194-2.804-2.194h-4.267l0.406-4.185h4.673c5.77 0 7.030 1.829 7.030 6.42v9.956zM40.919 16.203c-2.601-0.447-3.332-0.528-4.592-0.528-2.235 0-2.926 0.488-2.926 2.397v3.616c0 1.91 0.691 2.397 2.926 2.397 1.26 0 1.991-0.081 4.592-0.528v4.104c-2.276 0.528-3.779 0.65-4.998 0.65-5.404 0-7.517-2.844-7.517-6.908v-2.926c0-4.104 2.154-6.949 7.517-6.949 1.26 0 2.723 0.122 4.998 0.65v4.023zM56.645 21.323h-9.224v0.325c0 1.91 0.691 2.397 2.926 2.397 2.032 0 3.251-0.081 5.851-0.528v4.104c-2.519 0.528-3.82 0.65-6.258 0.65-5.404 0-7.517-2.844-7.517-6.908v-3.373c0-3.576 1.585-6.502 7.111-6.502s7.111 2.885 7.111 6.502v3.332zM72.94 21.404c0 3.942-1.138 6.827-7.964 6.827-2.479 0-3.942-0.203-6.664-0.65v-22.593l4.998-0.853v7.924c1.097-0.406 2.479-0.61 3.779-0.61 4.998 0 5.851 2.235 5.851 5.851v4.104zM89.031 21.486c0 3.413-1.422 6.705-7.314 6.705s-7.314-3.291-7.314-6.705v-3.291c0-3.413 1.422-6.705 7.314-6.705s7.314 3.291 7.314 6.705v3.291zM105.082 21.486c0 3.413-1.422 6.705-7.314 6.705s-7.314-3.291-7.314-6.705v-3.291c0-3.413 1.422-6.705 7.314-6.705s7.314 3.291 7.314 6.705v3.291zM121.58 28.028h-5.445l-4.592-7.68v7.68h-4.998v-23.040l4.998-0.853v14.832l4.592-7.274h5.445l-4.998 7.964 4.998 8.371zM97.768 15.634c-1.707 0-2.316 0.935-2.316 2.072v4.226c0 1.178 0.61 2.113 2.316 2.113s2.316-0.935 2.316-2.113v-4.185c0-1.178-0.61-2.113-2.316-2.113z"></path>
</symbol>
<symbol id="gift" viewBox="0 0 32 32">
<path fill="#ffbc33" style="fill: var(--color4, #ffbc33)" d="M17.866 19.157v12.843h10.565c1.373 0 2.487-1.113 2.487-2.487v-10.356h-13.052z"></path>
<path fill="#ffbc33" style="fill: var(--color4, #ffbc33)" d="M14.13 19.157h-13.047v10.356c0 1.374 1.114 2.487 2.487 2.487h10.56v-12.843zM4.474 29.39c-0.516 0-0.934-0.418-0.934-0.934v-5.182c0-0.516 0.418-0.934 0.934-0.934s0.934 0.418 0.934 0.934v5.182c0 0.515-0.418 0.934-0.934 0.934z"></path>
<path fill="#ffbc33" style="fill: var(--color4, #ffbc33)" d="M29.24 9.419h-4.671c0.645-0.309 1.185-0.629 1.512-0.956 1.924-1.924 1.924-5.044 0-6.968-0.963-0.962-2.224-1.443-3.485-1.443s-2.522 0.481-3.484 1.443c-0.799 0.799-1.567 2.772-2.195 4.804-0.293-0.080-0.595-0.137-0.912-0.137-0.316 0-0.618 0.056-0.91 0.136-0.63-2.051-1.406-4.050-2.212-4.856-0.962-0.962-2.222-1.443-3.484-1.443-1.261 0-2.522 0.481-3.484 1.443-1.924 1.925-1.924 5.044 0 6.968 0.344 0.346 0.924 0.684 1.62 1.008h-4.775c-1.373 0-2.486 1.113-2.486 2.486v2.115c0 1.373 1.113 2.485 2.486 2.485h11.37v-6.988h3.736v6.988h11.374c1.373 0 2.486-1.113 2.486-2.486v-2.115c0-1.373-1.113-2.486-2.486-2.486zM20.873 3.256c0.46-0.46 1.072-0.713 1.723-0.713s1.264 0.254 1.724 0.713c0.46 0.46 0.713 1.072 0.713 1.723s-0.253 1.263-0.71 1.72c-0.514 0.485-2.529 1.242-5.020 1.946-0.070-0.242-0.165-0.47-0.286-0.687 0.679-2.344 1.391-4.211 1.856-4.702zM7.677 3.204c0.46-0.46 1.073-0.713 1.723-0.713 0.652 0 1.263 0.253 1.722 0.712 0.468 0.496 1.189 2.387 1.873 4.755-0.113 0.203-0.203 0.417-0.274 0.643-2.503-0.705-4.53-1.465-5.044-1.95-0.95-0.95-0.95-2.496 0-3.446z"></path>
</symbol>
<symbol id="google" viewBox="0 0 128 32">
<path fill="#000" style="fill: var(--color5, #000)" d="M55.17 22.254c-0.549 0.715-1.309 1.257-2.281 1.625s-2.077 0.552-3.313 0.552c-1.271 0-2.396-0.288-3.375-0.865s-1.736-1.399-2.271-2.469c-0.528-1.076-0.802-2.33-0.823-3.76v-1.188c0-2.292 0.549-4.080 1.646-5.365 1.097-1.292 2.628-1.938 4.594-1.938 1.688 0 3.028 0.417 4.021 1.25s1.59 2.035 1.792 3.604h-2.583c-0.292-1.826-1.351-2.74-3.177-2.74-1.181 0-2.080 0.427-2.698 1.281-0.611 0.847-0.927 2.094-0.948 3.74v1.167c0 1.639 0.344 2.913 1.031 3.823 0.694 0.903 1.656 1.354 2.885 1.354 1.347 0 2.306-0.306 2.875-0.917v-2.969h-3.125v-2h5.75v5.813zM57.774 18.483c0-1.104 0.219-2.097 0.656-2.979 0.438-0.889 1.052-1.569 1.844-2.042 0.792-0.479 1.701-0.719 2.729-0.719 1.521 0 2.753 0.49 3.698 1.469 0.951 0.979 1.465 2.278 1.542 3.896l0.010 0.594c0 1.111-0.215 2.104-0.646 2.979-0.424 0.875-1.035 1.552-1.833 2.031-0.792 0.479-1.708 0.719-2.75 0.719-1.59 0-2.864-0.528-3.823-1.583-0.951-1.062-1.427-2.476-1.427-4.24v-0.125zM60.305 18.702c0 1.16 0.24 2.070 0.719 2.729 0.479 0.653 1.146 0.979 2 0.979s1.517-0.333 1.99-1c0.479-0.667 0.719-1.642 0.719-2.927 0-1.139-0.247-2.042-0.74-2.708-0.486-0.667-1.149-1-1.989-1-0.826 0-1.483 0.33-1.969 0.99-0.486 0.653-0.729 1.632-0.729 2.937zM70.346 18.483c0-1.104 0.219-2.097 0.656-2.979 0.438-0.889 1.052-1.569 1.844-2.042 0.792-0.479 1.701-0.719 2.729-0.719 1.521 0 2.753 0.49 3.698 1.469 0.951 0.979 1.465 2.278 1.542 3.896l0.010 0.594c0 1.111-0.215 2.104-0.646 2.979-0.424 0.875-1.035 1.552-1.833 2.031-0.792 0.479-1.708 0.719-2.75 0.719-1.59 0-2.864-0.528-3.823-1.583-0.951-1.062-1.427-2.476-1.427-4.24v-0.125zM72.878 18.702c0 1.16 0.24 2.070 0.719 2.729 0.479 0.653 1.146 0.979 2 0.979s1.517-0.333 1.99-1c0.479-0.667 0.719-1.642 0.719-2.927 0-1.139-0.247-2.042-0.74-2.708-0.486-0.667-1.149-1-1.99-1-0.826 0-1.483 0.33-1.969 0.99-0.486 0.653-0.729 1.632-0.729 2.937zM82.95 18.504c0-1.75 0.41-3.146 1.229-4.187 0.826-1.049 1.92-1.573 3.281-1.573 1.285 0 2.295 0.448 3.031 1.344l0.115-1.135h2.281v10.927c0 1.479-0.462 2.646-1.385 3.5-0.917 0.854-2.156 1.281-3.719 1.281-0.826 0-1.635-0.174-2.427-0.521-0.785-0.34-1.382-0.788-1.792-1.344l1.198-1.521c0.778 0.924 1.736 1.385 2.875 1.385 0.84 0 1.504-0.229 1.99-0.688 0.486-0.451 0.729-1.118 0.729-2v-0.76c-0.729 0.813-1.701 1.219-2.917 1.219-1.319 0-2.399-0.524-3.239-1.573-0.833-1.049-1.25-2.5-1.25-4.354zM85.471 18.723c0 1.132 0.229 2.024 0.688 2.677 0.465 0.646 1.108 0.969 1.927 0.969 1.021 0 1.778-0.438 2.271-1.313v-4.958c-0.479-0.854-1.229-1.281-2.25-1.281-0.833 0-1.483 0.33-1.948 0.99-0.458 0.66-0.688 1.632-0.688 2.917zM98.616 24.223h-2.531v-16h2.531v16zM106.772 24.431c-1.604 0-2.906-0.503-3.906-1.51-0.993-1.014-1.49-2.361-1.49-4.042v-0.313c0-1.125 0.215-2.128 0.646-3.010 0.438-0.889 1.049-1.58 1.833-2.073s1.66-0.74 2.625-0.74c1.535 0 2.719 0.49 3.552 1.469 0.84 0.979 1.26 2.365 1.26 4.156v1.021h-7.365c0.076 0.931 0.385 1.667 0.927 2.208 0.549 0.542 1.236 0.813 2.062 0.813 1.16 0 2.104-0.469 2.833-1.406l1.365 1.302c-0.451 0.674-1.056 1.198-1.813 1.573-0.75 0.368-1.594 0.552-2.531 0.552zM106.47 14.775c-0.694 0-1.257 0.243-1.687 0.729-0.424 0.486-0.694 1.163-0.813 2.031h4.823v-0.188c-0.056-0.847-0.281-1.486-0.677-1.917-0.396-0.437-0.944-0.656-1.646-0.656z"></path>
<path fill="#2196f3" style="fill: var(--color6, #2196f3)" d="M26.909 14.065c0.119 0 0.215 0.099 0.215 0.221v2.318c0 0.867-0.079 1.716-0.23 2.538-1.168 6.392-6.666 11.222-13.256 11.175-7.395-0.052-13.313-6.171-13.297-13.745 0.016-7.56 6.006-13.683 13.392-13.683 3.618 0 6.902 1.47 9.312 3.858 0.087 0.086 0.089 0.228 0.004 0.316l-3.202 3.279c-0.082 0.084-0.216 0.087-0.3 0.004-1.513-1.475-3.56-2.38-5.814-2.38-4.654 0-8.402 3.811-8.434 8.577-0.032 4.798 3.756 8.697 8.434 8.697 3.795 0 7.005-2.567 8.063-6.098h-7.847c-0.119 0-0.216-0.099-0.216-0.221v-4.636c0-0.122 0.097-0.221 0.216-0.221l12.96 0z"></path>
<path fill="#1e88e5" style="fill: var(--color7, #1e88e5)" d="M26.908 14.065h-1.617c0.119 0 0.215 0.099 0.215 0.221v2.318c0 0.867-0.079 1.716-0.23 2.539-1.114 6.098-6.169 10.774-12.355 11.151 0.237 0.014 0.475 0.023 0.715 0.024 6.591 0.047 12.089-4.784 13.256-11.175 0.151-0.823 0.23-1.671 0.23-2.539v-2.318c0-0.122-0.097-0.221-0.216-0.221z"></path>
<path fill="#f44336" style="fill: var(--color8, #f44336)" d="M6.072 12.987l-4.067-3.009c2.282-4.226 6.679-7.088 11.727-7.088 3.619 0 6.902 1.47 9.312 3.858 0.087 0.086 0.089 0.228 0.004 0.316l-3.202 3.279c-0.082 0.084-0.215 0.087-0.3 0.005-1.513-1.475-3.56-2.381-5.814-2.381-3.397 0-6.324 2.056-7.66 5.020z"></path>
<path fill="#e53935" style="fill: var(--color9, #e53935)" d="M4.898 12.118l1.174 0.869c1.219-2.705 3.765-4.653 6.783-4.973 0.023-0.002 0.044-0.006 0.068-0.008-0.266-0.026-0.535-0.039-0.807-0.039-3.068 0-5.743 1.657-7.218 4.151z"></path>
<path fill="#e53935" style="fill: var(--color9, #e53935)" d="M21.427 6.748c0.087 0.086 0.089 0.228 0.004 0.316l-2.599 2.662c0.249 0.194 0.487 0.401 0.714 0.622 0.084 0.082 0.218 0.080 0.3-0.004l3.202-3.279c0.085-0.088 0.083-0.23-0.004-0.316-2.41-2.388-5.694-3.858-9.312-3.858-0.272 0-0.541 0.009-0.808 0.026 3.298 0.201 6.274 1.624 8.504 3.833z"></path>
<path fill="#4caf50" style="fill: var(--color10, #4caf50)" d="M23.556 25.924c-2.446 2.702-5.942 4.394-9.824 4.394-5.243 0-9.782-3.086-11.98-7.581l4.152-2.914c1.246 3.175 4.282 5.417 7.828 5.417 2.226 0 4.25-0.883 5.757-2.326l4.067 3.009z"></path>
<path fill="#43a047" style="fill: var(--color11, #43a047)" d="M5.904 19.824l-1.224 0.859c1.422 2.713 4.219 4.558 7.436 4.558 0.272 0 0.541-0.014 0.806-0.039-3.194-0.312-5.868-2.448-7.018-5.378z"></path>
<path fill="#43a047" style="fill: var(--color11, #43a047)" d="M13.732 30.318c3.882 0 7.378-1.692 9.824-4.394l-0.996-0.737c-2.296 2.927-5.741 4.868-9.634 5.106 0.267 0.016 0.536 0.025 0.806 0.025z"></path>
<path fill="#ffc107" style="fill: var(--color12, #ffc107)" d="M5.298 16.604c0 1.138 0.215 2.225 0.606 3.22l-4.152 2.914c-0.903-1.846-1.411-3.929-1.411-6.134 0-2.403 0.604-4.662 1.664-6.626l4.067 3.009c-0.496 1.1-0.773 2.326-0.773 3.617z"></path>
<path fill="#ffb300" style="fill: var(--color13, #ffb300)" d="M4.68 20.683l1.224-0.859c-0.391-0.995-0.606-2.082-0.606-3.22 0-1.291 0.277-2.517 0.773-3.617l-1.174-0.869c-0.762 1.289-1.205 2.802-1.216 4.426-0.010 1.498 0.352 2.908 0.998 4.139z"></path>
</symbol>
<symbol id="image" viewBox="0 0 36 32">
<path d="M18.006 11c-2.003 0-3.627 1.624-3.627 3.627s1.624 3.627 3.627 3.627 3.627-1.624 3.627-3.627c0-2.003-1.624-3.627-3.627-3.627zM18.006 16.527c-1.049 0-1.9-0.851-1.9-1.9s0.851-1.9 1.9-1.9c1.049 0 1.9 0.851 1.9 1.9s-0.851 1.9-1.9 1.9z"></path>
<path d="M32.47 2.709l-23.575-2.677c-0.915-0.13-1.842 0.137-2.547 0.734-0.705 0.547-1.157 1.358-1.252 2.245l-0.432 3.541h-1.339c-1.9 0-3.325 1.684-3.325 3.584v17.659c-0.048 1.812 1.382 3.319 3.194 3.367 0.044 0.001 0.087 0.001 0.131 0.001h23.704c1.9 0 3.627-1.468 3.627-3.368v-0.691c0.589-0.114 1.148-0.349 1.641-0.691 0.7-0.589 1.148-1.423 1.252-2.332l1.986-17.53c0.203-1.904-1.164-3.617-3.066-3.843zM28.93 27.795c0 0.95-0.95 1.641-1.9 1.641h-23.704c-0.858 0.025-1.574-0.65-1.599-1.508-0.001-0.044-0.001-0.088 0.002-0.133v-3.195l6.692-4.922c0.804-0.617 1.936-0.562 2.677 0.129l4.706 4.145c0.715 0.6 1.614 0.935 2.548 0.95 0.73 0.009 1.447-0.185 2.073-0.561l8.506-4.922v8.376h-0zM28.93 17.389l-9.412 5.483c-0.808 0.479-1.831 0.392-2.548-0.216l-4.749-4.188c-1.361-1.17-3.351-1.241-4.793-0.173l-5.699 4.145v-12.305c0-0.95 0.648-1.857 1.598-1.857h23.704c1.015 0.042 1.834 0.843 1.9 1.857v7.254zM33.81 6.319c-0.001 0.006-0.001 0.011-0.002 0.017l-2.029 17.53c0.003 0.455-0.204 0.885-0.561 1.166-0.173 0.173-0.561 0.259-0.561 0.345v-15.241c-0.068-1.967-1.659-3.539-3.627-3.584h-20.638l0.389-3.368c0.084-0.436 0.312-0.831 0.648-1.123 0.379-0.262 0.837-0.384 1.295-0.345l23.531 2.72c0.95 0.090 1.646 0.933 1.556 1.883z"></path>
</symbol>
<symbol id="logo" viewBox="0 0 25 32">
<path fill="#ffbc33" style="fill: var(--color4, #ffbc33)" d="M23.775 18.133c0-0.009 0-0.018 0-0.028 0-1.901-1.547-3.448-3.448-3.448h-0.941l4.126-9.952c0.727-1.756-0.11-3.777-1.866-4.505s-3.778 0.11-4.505 1.866l-2.579 6.226-2.579-6.226c-0.728-1.756-2.749-2.594-4.505-1.866s-2.594 2.749-1.866 4.505l2.24 5.409c-0.283 0.167-0.539 0.373-0.763 0.611-0.629-0.669-1.521-1.088-2.51-1.088-1.901 0-3.448 1.547-3.448 3.448v7.532c0 6.243 5.079 11.322 11.322 11.322s11.322-5.079 11.322-11.322l-0-2.483zM8.197 1.932c0.801-0.332 1.723 0.050 2.055 0.851l3.445 8.317c0.145 0.35 0.487 0.579 0.866 0.579s0.721-0.229 0.866-0.579l3.445-8.317c0.332-0.801 1.254-1.183 2.055-0.852s1.183 1.254 0.851 2.055l-4.424 10.67h-4.307l0-1.573c-0-1.873-1.501-3.4-3.363-3.446l-2.341-5.651c-0.332-0.801 0.050-1.723 0.851-2.055zM9.601 14.658c-0.566 0-1.101 0.138-1.573 0.381v-1.955c0-0.867 0.706-1.573 1.573-1.573s1.573 0.706 1.573 1.573l-0 1.573h-1.573zM3.007 13.084c0-0.867 0.706-1.573 1.573-1.573s1.573 0.706 1.573 1.573v5.021c-0 0.867-0.706 1.573-1.573 1.573s-1.573-0.706-1.573-1.573v-5.021zM12.454 30.063c-5.019 0-9.136-3.935-9.429-8.882 0.468 0.237 0.996 0.372 1.555 0.372 0.989 0 1.881-0.419 2.51-1.088 0.629 0.669 1.521 1.088 2.511 1.088h8.216c0.518 0 0.938-0.42 0.938-0.937s-0.42-0.938-0.938-0.938h-8.216c-0.867 0-1.573-0.706-1.573-1.573s0.706-1.573 1.573-1.573h2.51c0 0 0 0 0 0h0c0 0 0 0 0 0h5.866c0.001 0 0.003 0 0.005 0s0.004-0 0.006-0h2.339c0.864 0 1.567 0.7 1.573 1.562-0 0.009-0 0.017-0 0.026v2.495c0 5.209-4.238 9.447-9.447 9.447z"></path>
</symbol>
<symbol id="logout" viewBox="0 0 32 32">
<path fill="current-color" style="fill: var(--color1, current-color)" d="M22.625 24.5v2.5c0 2.757-2.243 5-5 5h-12.563c-2.757 0-5-2.243-5-5v-22c0-2.757 2.243-5 5-5h12.563c2.757 0 5 2.243 5 5v2.5c0 0.69-0.56 1.25-1.25 1.25s-1.25-0.56-1.25-1.25v-2.5c0-1.378-1.122-2.5-2.5-2.5h-12.563c-1.378 0-2.5 1.122-2.5 2.5v22c0 1.378 1.122 2.5 2.5 2.5h12.563c1.378 0 2.5-1.122 2.5-2.5v-2.5c0-0.69 0.56-1.25 1.25-1.25s1.25 0.56 1.25 1.25zM31.147 13.853l-2.799-2.799c-0.488-0.488-1.28-0.488-1.768 0s-0.488 1.28 0 1.768l1.991 1.991h-15.009c-0.69 0-1.25 0.56-1.25 1.25s0.56 1.25 1.25 1.25h15.009l-1.991 1.991c-0.488 0.488-0.488 1.28 0 1.768 0.244 0.244 0.564 0.366 0.884 0.366s0.64-0.122 0.884-0.366l2.799-2.799c1.219-1.218 1.219-3.201 0-4.419z"></path>
</symbol>
<symbol id="menu" viewBox="0 0 44 32">
<path fill="none"  style="stroke: " stroke-linejoin="miter" stroke-linecap="butt" stroke-miterlimit="4" stroke-width="2" d="M0 2h44"></path>
<path fill="none"  style="stroke: " stroke-linejoin="miter" stroke-linecap="butt" stroke-miterlimit="4" stroke-width="2" d="M0 16h44"></path>
<path fill="none"  style="stroke: " stroke-linejoin="miter" stroke-linecap="butt" stroke-miterlimit="4" stroke-width="2" d="M0 30h44"></path>
</symbol>
<symbol id="ok" viewBox="0 0 32 32">
<path fill="#fff" style="fill: var(--color2, #fff)" d="M30.118 15.059c0 7.797-6.321 14.118-14.118 14.118s-14.118-6.321-14.118-14.118c0-7.797 6.321-14.118 14.118-14.118s14.118 6.321 14.118 14.118z"></path>
<path fill="#8ec63f" style="fill: var(--color15, #8ec63f)" d="M11.623 18.959c-0.821 0-1.562-0.177-2.225-0.531-0.655-0.354-1.171-0.84-1.547-1.457-0.369-0.625-0.553-1.325-0.553-2.101s0.184-1.472 0.553-2.089c0.376-0.625 0.892-1.114 1.547-1.468 0.663-0.354 1.404-0.531 2.225-0.531s1.559 0.177 2.214 0.531c0.655 0.354 1.171 0.843 1.547 1.468 0.376 0.617 0.565 1.314 0.565 2.089s-0.188 1.476-0.565 2.101c-0.376 0.617-0.892 1.103-1.547 1.457s-1.393 0.531-2.214 0.531zM11.623 17.4c0.467 0 0.888-0.105 1.265-0.316 0.376-0.218 0.67-0.52 0.881-0.904 0.218-0.384 0.328-0.821 0.328-1.31s-0.109-0.926-0.328-1.31c-0.211-0.384-0.504-0.681-0.881-0.892-0.376-0.218-0.798-0.328-1.265-0.328s-0.888 0.109-1.265 0.328c-0.376 0.211-0.674 0.508-0.892 0.892-0.211 0.384-0.316 0.821-0.316 1.31s0.105 0.926 0.316 1.31c0.218 0.384 0.516 0.685 0.892 0.904 0.376 0.211 0.798 0.316 1.265 0.316zM20.87 15.639h-1.265v3.185h-1.818v-7.906h1.818v3.196h1.31l2.078-3.196h1.931l-2.586 3.817 2.665 4.088h-2.078l-2.056-3.185z"></path>
</symbol>
<symbol id="pencil" viewBox="0 0 32 32">
<path fill="#fff" style="fill: var(--color2, #fff)" d="M18.747 12.027l1.227 1.227-12.080 12.080h-1.227v-1.227l12.080-12.080zM23.547 4c-0.333 0-0.68 0.133-0.933 0.387l-2.44 2.44 5 5 2.44-2.44c0.52-0.52 0.52-1.36 0-1.88l-3.12-3.12c-0.267-0.267-0.6-0.387-0.947-0.387zM18.747 8.253l-14.747 14.747v5h5l14.747-14.747-5-5z"></path>
</symbol>
<symbol id="plus" viewBox="0 0 32 32">
<path fill="#fff" style="fill: var(--color1, #fff)" d="M30.118 15.059c0 7.797-6.321 14.118-14.118 14.118s-14.118-6.321-14.118-14.118c0-7.797 6.321-14.118 14.118-14.118s14.118 6.321 14.118 14.118z"></path>
<path fill="none" stroke="#8ec63f" style="stroke: var(--color2, #8ec63f)" stroke-linejoin="miter" stroke-linecap="round" stroke-miterlimit="4" stroke-width="1.8824" d="M16 10.353v9.412"></path>
<path fill="none" stroke="#8ec63f" style="stroke: var(--color2, #8ec63f)" stroke-linejoin="miter" stroke-linecap="round" stroke-miterlimit="4" stroke-width="1.8824" d="M11.294 15.059h9.412"></path>
</symbol>
<symbol id="yes" viewBox="0 0 32 32">
<path fill="#8ec63f" style="fill: var(--color1, #8ec63f)" d="M32 16c0 8.837-7.163 16-16 16s-16-7.163-16-16c0-8.837 7.163-16 16-16s16 7.163 16 16z"></path>
<path fill="none" stroke="#fff" style="stroke: var(--color2, #fff)" stroke-linejoin="round" stroke-linecap="round" stroke-miterlimit="4" stroke-width="2.1333" d="M10.667 15.842l3.657 4.425 7.009-8.533"></path>
</symbol>
<symbol id="yes-checked" viewBox="0 0 38 32">
<path fill="none" stroke="#fff" style="stroke: var(--color1, #fff)" stroke-linejoin="round" stroke-linecap="round" stroke-miterlimit="4" stroke-width="6.4" d="M3.2 15.526l10.971 13.274 21.029-25.6"></path>
</symbol>
<symbol id="modal-close" viewBox="0 0 32 32">
<path d="M31.555 3.577l-3.133-3.133-12.422 12.422-12.422-12.422-3.133 3.133 12.422 12.422-12.422 12.422 3.133 3.133 12.422-12.422 12.422 12.422 3.133-3.133-12.422-12.422 12.422-12.422z"></path>
</symbol>
<symbol id="add" viewBox="0 0 32 32">
<path fill="#ffbc33" d="M32 16c0 8.837-7.163 16-16 16s-16-7.163-16-16c0-8.837 7.163-16 16-16s16 7.163 16 16z"></path>
<path fill="none" stroke="#fff" style="stroke: var(--color1, #fff)" stroke-linejoin="miter" stroke-linecap="round" stroke-miterlimit="4" stroke-width="2.3704" d="M16 10.667v10.667"></path>
<path fill="none" stroke="#fff" style="stroke: var(--color1, #fff)" stroke-linejoin="miter" stroke-linecap="round" stroke-miterlimit="4" stroke-width="2.3704" d="M10.667 16h10.667"></path>
</symbol>
<symbol id="unchecked" viewBox="0 0 32 32">
<path fill="none" stroke="#A6ABB9" style="stroke: var(--color1, #A6ABB9)" stroke-linejoin="miter" stroke-linecap="butt" stroke-miterlimit="4" stroke-width="2.0" d="M31.2 16c0 8.395-6.805 15.2-15.2 15.2s-15.2-6.805-15.2-15.2c0-8.395 6.805-15.2 15.2-15.2s15.2 6.805 15.2 15.2z"></path>
</symbol>
<symbol id="checked" viewBox="0 0 32 32">
<path fill="none" stroke="#ffbc33" style="stroke: var(--color2, #ffbc33)" stroke-linejoin="miter" stroke-linecap="butt" stroke-miterlimit="4" stroke-width="2.0" d="M31.2 16c0 8.395-6.805 15.2-15.2 15.2s-15.2-6.805-15.2-15.2c0-8.395 6.805-15.2 15.2-15.2s15.2 6.805 15.2 15.2z"></path>
<path fill="#ffbc33" style="fill: var(--color2, #ffbc33)" d="M24 16c0 4.418-3.582 8-8 8s-8-3.582-8-8c0-4.418 3.582-8 8-8s8 3.582 8 8z"></path>
</symbol>
<symbol id="delete" viewBox="0 0 32 32">
<path d="M12.7 0.119c-0.412 0.144-0.787 0.494-0.988 0.912-0.137 0.294-0.15 0.381-0.15 1.481v1.175h-3.112c-3.419 0-3.494 0.006-4 0.375-0.456 0.331-0.606 0.612-1.081 2.050-0.388 1.181-0.444 1.394-0.413 1.675 0.044 0.406 0.225 0.762 0.519 1.025 0.337 0.294 0.606 0.387 1.225 0.425l0.544 0.031 0.037 0.256c0.019 0.137 0.381 4.644 0.813 10.006s0.813 9.906 0.844 10.094c0.194 1.119 1.175 2.094 2.306 2.313 0.213 0.038 2.706 0.063 6.938 0.063 5.506 0 6.669-0.019 7.025-0.094 0.506-0.106 1.063-0.425 1.456-0.837 0.294-0.3 0.669-1.006 0.738-1.381 0.038-0.2 1.663-20.075 1.663-20.331 0-0.081 0.056-0.106 0.269-0.106 0.512 0 0.919-0.169 1.262-0.519 0.6-0.613 0.606-0.956 0.063-2.612-0.444-1.337-0.637-1.7-1.081-2.038-0.512-0.388-0.581-0.394-3.994-0.394h-3.081v-0.925c0-0.513-0.031-1.094-0.069-1.3-0.113-0.625-0.519-1.119-1.106-1.337-0.313-0.119-0.488-0.125-3.313-0.125-2.731 0.006-3.012 0.013-3.313 0.119zM18.625 2.781v0.906h-5.188v-1.813h5.188v0.906zM26.775 6.425c0.156 0.469 0.288 0.875 0.288 0.906 0 0.025-4.975 0.044-11.063 0.044s-11.063-0.006-11.063-0.019c0-0.044 0.556-1.669 0.594-1.731 0.025-0.044 3.338-0.063 10.5-0.063h10.456l0.288 0.862zM25.188 9.325c0 0.044-0.363 4.575-0.806 10.063-0.6 7.375-0.837 10.025-0.9 10.156-0.119 0.225-0.344 0.431-0.563 0.512-0.119 0.050-2.244 0.069-6.756 0.069h-6.575l-0.275-0.144c-0.556-0.275-0.456 0.525-1.338-10.481-0.431-5.381-0.8-9.887-0.819-10.019l-0.031-0.231h9.031c7.181 0 9.031 0.019 9.031 0.075z"></path>
<path d="M9.994 10.519c-0.119 0.075-0.269 0.244-0.331 0.369l-0.125 0.219 0.475 8.662c0.519 9.506 0.456 8.875 0.881 9.194 0.244 0.181 0.781 0.181 1.025 0 0.294-0.219 0.406-0.481 0.4-0.919 0-0.212-0.2-4.1-0.45-8.637-0.488-9.088-0.444-8.637-0.881-8.906-0.287-0.175-0.719-0.169-0.994 0.019z"></path>
<path d="M15.512 10.5c-0.125 0.075-0.256 0.238-0.331 0.406-0.119 0.269-0.119 0.469-0.106 8.931 0.019 8.631 0.019 8.656 0.15 8.825 0.231 0.319 0.444 0.431 0.794 0.431 0.387 0 0.7-0.188 0.831-0.506 0.075-0.175 0.087-1.625 0.087-8.881 0-8.544 0-8.675-0.125-8.881-0.269-0.431-0.869-0.588-1.3-0.325z"></path>
<path d="M21.012 10.506c-0.275 0.181-0.4 0.438-0.431 0.9-0.012 0.206-0.219 4.081-0.456 8.613-0.288 5.637-0.406 8.306-0.369 8.45 0.119 0.413 0.675 0.731 1.1 0.625 0.244-0.056 0.506-0.262 0.619-0.475 0.075-0.15 0.175-1.781 0.531-8.512 0.244-4.581 0.431-8.531 0.419-8.781-0.019-0.425-0.031-0.463-0.25-0.681-0.206-0.2-0.275-0.231-0.594-0.25-0.294-0.019-0.4 0-0.569 0.113z"></path>
</symbol>
<symbol id="edit" viewBox="0 0 32 32">
<path d="M23.406 4.075c-0.85 0.112-0.381-0.325-9.137 8.438l-8.012 8.019-0.537 2.313c-0.294 1.269-0.531 2.406-0.531 2.531 0 0.288 0.156 0.438 0.444 0.438 0.119 0 1.256-0.238 2.525-0.531l2.313-0.538 8.019-8.012c7.075-7.075 8.038-8.056 8.2-8.387 0.344-0.694 0.35-1.537 0.019-2.219-0.231-0.487-1.375-1.625-1.837-1.844-0.425-0.194-0.969-0.269-1.462-0.206zM24.481 5.213c0.288 0.15 1.256 1.175 1.369 1.444 0.137 0.344 0.131 0.888-0.025 1.194-0.069 0.131-0.231 0.363-0.363 0.512l-0.244 0.269-1.425-1.431-1.431-1.431 0.275-0.231c0.144-0.131 0.356-0.281 0.456-0.338 0.381-0.2 0.994-0.194 1.387 0.013zM17.719 16.125l-6.781 6.781-1.419-1.425-1.425-1.419 13.563-13.563 2.844 2.844-6.781 6.781zM8.838 22.181c1.412 1.413 1.469 1.494 1.15 1.631-0.113 0.050-1.819 0.45-3.4 0.8-0.225 0.050-0.256 0.044-0.231-0.044 0.013-0.056 0.2-0.881 0.419-1.837 0.381-1.656 0.463-1.919 0.625-1.919 0.037 0 0.688 0.619 1.438 1.369z"></path>
<path d="M16.644 13.637c-2.244 2.238-4.106 4.15-4.15 4.25-0.1 0.238 0.019 0.512 0.262 0.613 0.137 0.063 0.225 0.063 0.356 0.006 0.1-0.044 2.013-1.906 4.25-4.15 3.725-3.731 4.075-4.094 4.075-4.281 0-0.137-0.056-0.256-0.156-0.356s-0.219-0.156-0.356-0.156c-0.188 0-0.55 0.35-4.281 4.075z"></path>
<path d="M11.113 19.188c-0.35 0.369-0.394 0.6-0.144 0.844 0.244 0.25 0.475 0.206 0.844-0.144 0.262-0.256 0.313-0.337 0.313-0.531 0-0.15-0.044-0.275-0.125-0.356s-0.206-0.125-0.356-0.125c-0.194 0-0.275 0.050-0.531 0.313z"></path>
<path d="M0.769 26.575c-0.075 0.038-0.169 0.144-0.213 0.244-0.094 0.231 0.012 0.512 0.231 0.613 0.225 0.1 28.2 0.1 28.425 0 0.344-0.163 0.344-0.7 0-0.863-0.212-0.094-28.244-0.094-28.444 0.006z"></path>
<path d="M30.269 26.575c-0.2 0.1-0.3 0.381-0.212 0.606 0.094 0.225 0.3 0.319 0.694 0.319s0.6-0.094 0.694-0.319c0.094-0.231-0.012-0.512-0.231-0.613-0.194-0.087-0.756-0.081-0.944 0.006z"></path>
</symbol>
</defs>
</svg>
